<svg width="21.333984" height="28.000000" viewBox="0 0 21.334 28" fill="none" xmlns="http://www.w3.org/2000/svg" xmlns:xlink="http://www.w3.org/1999/xlink">
	<desc>
			Created with Pixso.
	</desc>
	<defs/>
	<path id="Vector" d="M5.25 21.33C4.85 19.63 3.07 18.24 2.33 17.33C0.87 15.5 0 13.18 0 10.66C0 4.77 4.77 0 10.66 0C16.55 0 21.33 4.77 21.33 10.66C21.33 13.18 20.45 15.5 18.99 17.33C18.25 18.24 16.47 19.63 16.07 21.33L5.25 21.33ZM16 24L16 25.33C16 26.8 14.8 28 13.33 28L8 28C6.52 28 5.33 26.8 5.33 25.33L5.33 24L16 24ZM12 10.67L12 5.33L6 13.33L9.33 13.33L9.33 18.67L15.33 10.67L12 10.67Z" fill="#FFFFFF" fill-opacity="1.000000" fill-rule="nonzero"/>
</svg>
