<svg width="18.666016" height="29.333374" viewBox="0 0 18.666 29.3334" fill="none" xmlns="http://www.w3.org/2000/svg" xmlns:xlink="http://www.w3.org/1999/xlink">
	<desc>
			Created with Pixso.
	</desc>
	<defs/>
	<path id="Vector" d="M8 26.66L8 25.23C3.47 24.59 0 20.7 0 16L0 9.33C0 4.17 4.17 0 9.33 0C14.48 0 18.66 4.17 18.66 9.33L18.66 16C18.66 20.7 15.18 24.59 10.66 25.23L10.66 26.66L16 26.66L16 29.33L2.66 29.33L2.66 26.66L8 26.66ZM9.33 10.66C8.59 10.66 8 10.06 8 9.33C8 8.59 8.59 8 9.33 8C10.07 8 10.66 8.59 10.66 9.33C10.66 10.06 10.07 10.66 9.33 10.66ZM9.33 13.33C11.54 13.33 13.33 11.54 13.33 9.33C13.33 7.12 11.54 5.33 9.33 5.33C7.12 5.33 5.33 7.12 5.33 9.33C5.33 11.54 7.12 13.33 9.33 13.33Z" fill="#FFFFFF" fill-opacity="1.000000" fill-rule="nonzero"/>
</svg>
