<svg width="28.800781" height="23.680420" viewBox="0 0 28.8008 23.6804" fill="none" xmlns="http://www.w3.org/2000/svg" xmlns:xlink="http://www.w3.org/1999/xlink">
	<desc>
			Created with Pixso.
	</desc>
	<defs/>
	<path id="Vector" d="M2.63 6.01C5.42 3.61 7.63 1.71 13.62 5.09C16.5 6.72 18.82 7.33 20.75 7.33C24.14 7.33 26.33 5.45 28.23 3.82C28.55 3.54 28.75 3.14 28.79 2.71C28.83 2.28 28.69 1.85 28.42 1.52C28.29 1.36 28.12 1.22 27.94 1.12C27.75 1.02 27.55 0.96 27.33 0.94C27.12 0.92 26.91 0.95 26.71 1.01C26.51 1.08 26.33 1.18 26.16 1.32C23.37 3.72 21.16 5.62 15.17 2.23C7.25 -2.24 3.54 0.95 0.56 3.51C0.24 3.79 0.04 4.19 0 4.62C-0.04 5.05 0.1 5.48 0.37 5.81C0.5 5.97 0.67 6.11 0.85 6.21C1.04 6.31 1.25 6.37 1.46 6.38C1.67 6.4 1.88 6.38 2.08 6.31C2.28 6.25 2.47 6.14 2.63 6.01ZM26.16 9.49C23.37 11.89 21.16 13.79 15.17 10.4C7.25 5.93 3.54 9.12 0.56 11.68C0.24 11.96 0.04 12.36 0 12.79C-0.04 13.22 0.1 13.64 0.37 13.98C0.5 14.14 0.67 14.28 0.85 14.38C1.04 14.48 1.25 14.54 1.46 14.55C1.66 14.57 1.88 14.55 2.08 14.48C2.28 14.42 2.47 14.32 2.63 14.18C5.42 11.78 7.63 9.88 13.62 13.26C16.5 14.89 18.82 15.5 20.75 15.5C24.14 15.5 26.33 13.62 28.23 11.99C28.55 11.71 28.75 11.31 28.79 10.88C28.83 10.45 28.69 10.02 28.42 9.69C28.29 9.53 28.12 9.39 27.94 9.29C27.75 9.19 27.54 9.13 27.33 9.11C27.12 9.09 26.91 9.12 26.71 9.18C26.51 9.25 26.32 9.35 26.16 9.49ZM26.16 17.66C23.37 20.06 21.16 21.96 15.17 18.58C7.25 14.1 3.54 17.29 0.56 19.85C0.24 20.13 0.04 20.53 0 20.96C-0.04 21.39 0.1 21.82 0.37 22.15C0.5 22.31 0.67 22.45 0.85 22.55C1.04 22.65 1.25 22.71 1.46 22.73C1.67 22.74 1.88 22.72 2.08 22.66C2.28 22.59 2.47 22.49 2.63 22.35C5.42 19.95 7.63 18.05 13.62 21.44C16.5 23.06 18.82 23.68 20.75 23.68C24.14 23.68 26.33 21.79 28.23 20.16C28.55 19.88 28.75 19.48 28.79 19.05C28.83 18.62 28.69 18.19 28.42 17.86C28.29 17.7 28.12 17.56 27.94 17.46C27.75 17.36 27.54 17.3 27.33 17.29C27.12 17.27 26.91 17.29 26.71 17.35C26.51 17.42 26.33 17.52 26.16 17.66Z" fill="#FFFFFF" fill-opacity="1.000000" fill-rule="nonzero"/>
</svg>
