<svg width="18.666016" height="29.333374" viewBox="0 0 18.666 29.3334" fill="none" xmlns="http://www.w3.org/2000/svg" xmlns:xlink="http://www.w3.org/1999/xlink">
	<desc>
			Created with Pixso.
	</desc>
	<defs/>
	<path id="Vector" d="M4 12.33L4 5.33C4 2.38 6.38 0 9.33 0C12.27 0 14.66 2.38 14.66 5.33L14.66 12.33C17.08 14.02 18.66 16.82 18.66 20C18.66 25.15 14.48 29.33 9.33 29.33C4.17 29.33 0 25.15 0 20C0 16.82 1.58 14.02 4 12.33ZM4 20C4 22.94 6.38 25.33 9.33 25.33C12.27 25.33 14.66 22.94 14.66 20L4 20Z" fill="#FFFFFF" fill-opacity="1.000000" fill-rule="nonzero"/>
</svg>
