<svg width="28.000000" height="24.000000" viewBox="0 0 28 24" fill="none" xmlns="http://www.w3.org/2000/svg" xmlns:xlink="http://www.w3.org/1999/xlink">
	<desc>
			Created with Pixso.
	</desc>
	<defs/>
	<path id="Vector" d="M4.66 9.33C2.08 9.33 0 7.24 0 4.66C0 2.08 2.08 0 4.66 0C7.24 0 9.33 2.08 9.33 4.66C9.33 7.24 7.24 9.33 4.66 9.33ZM4.66 6.66C5.77 6.66 6.66 5.77 6.66 4.66C6.66 3.56 5.77 2.66 4.66 2.66C3.56 2.66 2.66 3.56 2.66 4.66C2.66 5.77 3.56 6.66 4.66 6.66ZM28 9.33L25.33 9.33C25.33 6.38 22.94 4 20 4C17.05 4 14.66 6.38 14.66 9.33L14.66 16C14.66 18.94 17.05 21.33 20 21.33C22.94 21.33 25.33 18.94 25.33 16L28 16C28 20.41 24.41 24 20 24C15.58 24 12 20.41 12 16L12 9.33C12 4.91 15.58 1.33 20 1.33C24.41 1.33 28 4.91 28 9.33Z" fill="#FFFFFF" fill-opacity="1.000000" fill-rule="nonzero"/>
</svg>
