<svg width="199.000000" height="32.000000" viewBox="0 0 199 32" fill="none" xmlns="http://www.w3.org/2000/svg" xmlns:xlink="http://www.w3.org/1999/xlink">
	<desc>
			Created with Pixso.
	</desc>
	<defs/>
	<path id="Vector" d="M8.44 14.56L18.42 14.56L18.42 29.13L8.44 29.13L8.44 14.56Z" fill="#7B1F37" fill-opacity="1.000000" fill-rule="nonzero"/>
	<path id="Vector" d="M0 28.93L26.86 28.93L26.86 32L0 32L0 28.93Z" fill="#FFFFFF" fill-opacity="1.000000" fill-rule="nonzero"/>
	<path id="Vector" d="M0 29.7L0 5.16L3.07 5.16L3.07 29.7L0 29.7Z" fill="#FFFFFF" fill-opacity="1.000000" fill-rule="nonzero"/>
	<path id="Vector" d="M7.67 8.23L0 8.23L0 5.16L7.67 5.16L7.67 8.23Z" fill="#FFFFFF" fill-opacity="1.000000" fill-rule="nonzero"/>
	<path id="Vector" d="M26.86 8.23L19.19 8.23L19.19 5.16L26.86 5.16L26.86 8.23Z" fill="#FFFFFF" fill-opacity="1.000000" fill-rule="nonzero"/>
	<path id="Vector" d="M23.79 29.7L23.79 5.16L26.86 5.16L26.86 29.7L23.79 29.7Z" fill="#FFFFFF" fill-opacity="1.000000" fill-rule="nonzero"/>
	<path id="Vector" d="M16.44 0L18.97 1.65L11.74 12.66L9.21 11L16.44 0Z" fill="#7B1F37" fill-opacity="1.000000" fill-rule="nonzero"/>
	<path id="Vector" d="M34.49 26.06L34.49 10.85L40.64 10.85C40.79 10.85 40.97 10.86 41.19 10.87C41.41 10.88 41.62 10.9 41.82 10.94C42.66 11.07 43.37 11.36 43.93 11.8C44.5 12.25 44.93 12.81 45.21 13.48C45.49 14.16 45.64 14.9 45.64 15.72C45.64 16.93 45.33 17.98 44.7 18.86C44.08 19.73 43.15 20.28 41.91 20.49L41.01 20.6L36.7 20.6L36.7 26.06L34.49 26.06ZM43.39 26.06L40.39 19.87L42.62 19.3L45.92 26.06L43.39 26.06ZM36.7 18.51L40.56 18.51C40.7 18.51 40.85 18.5 41.02 18.49C41.2 18.47 41.37 18.45 41.52 18.41C41.97 18.31 42.34 18.11 42.61 17.83C42.89 17.54 43.08 17.21 43.2 16.84C43.32 16.47 43.38 16.09 43.38 15.72C43.38 15.35 43.32 14.98 43.2 14.61C43.08 14.24 42.89 13.91 42.61 13.63C42.34 13.34 41.97 13.14 41.52 13.04C41.37 13 41.2 12.97 41.02 12.95C40.85 12.94 40.7 12.93 40.56 12.93L36.7 12.93L36.7 18.51Z" fill="#FFFFFF" fill-opacity="1.000000" fill-rule="nonzero"/>
	<path id="Vector" d="M47.82 26.06L47.82 10.85L57.55 10.85L57.55 12.93L50.03 12.93L50.03 17.2L56.28 17.2L56.28 19.28L50.03 19.28L50.03 23.98L57.55 23.98L57.55 26.06L47.82 26.06Z" fill="#FFFFFF" fill-opacity="1.000000" fill-rule="nonzero"/>
	<path id="Vector" d="M59.67 26.06L59.67 10.85L61.67 10.85L67.19 22.29L72.68 10.85L74.7 10.85L74.7 26.05L72.61 26.05L72.61 15.65L67.69 26.06L66.68 26.06L61.75 15.65L61.75 26.06L59.67 26.06Z" fill="#FFFFFF" fill-opacity="1.000000" fill-rule="nonzero"/>
	<path id="Vector" d="M77.24 26.06L77.24 10.85L83.4 10.85C83.55 10.85 83.73 10.86 83.95 10.87C84.17 10.88 84.37 10.9 84.57 10.94C85.42 11.07 86.12 11.36 86.69 11.8C87.26 12.25 87.68 12.81 87.97 13.48C88.25 14.16 88.39 14.9 88.39 15.72C88.39 16.54 88.25 17.29 87.97 17.97C87.68 18.65 87.26 19.21 86.69 19.65C86.12 20.09 85.42 20.38 84.57 20.52C84.37 20.54 84.16 20.57 83.94 20.58C83.72 20.59 83.54 20.6 83.4 20.6L79.45 20.6L79.45 26.06L77.24 26.06ZM79.45 18.51L83.31 18.51C83.45 18.51 83.61 18.5 83.78 18.49C83.95 18.47 84.12 18.45 84.28 18.41C84.73 18.31 85.09 18.11 85.37 17.83C85.64 17.54 85.84 17.21 85.96 16.84C86.08 16.47 86.14 16.09 86.14 15.72C86.14 15.35 86.08 14.98 85.96 14.61C85.84 14.24 85.64 13.91 85.37 13.63C85.09 13.34 84.73 13.14 84.28 13.04C84.12 13 83.95 12.97 83.78 12.95C83.61 12.94 83.45 12.93 83.31 12.93L79.45 12.93L79.45 18.51Z" fill="#FFFFFF" fill-opacity="1.000000" fill-rule="nonzero"/>
	<path id="Vector" d="M90.08 26.06L90.08 10.85L96.24 10.85C96.39 10.85 96.57 10.86 96.79 10.87C97.01 10.88 97.21 10.9 97.41 10.94C98.26 11.07 98.96 11.36 99.53 11.8C100.1 12.25 100.53 12.81 100.81 13.48C101.09 14.16 101.23 14.9 101.23 15.72C101.23 16.93 100.92 17.98 100.3 18.86C99.68 19.73 98.75 20.28 97.51 20.49L96.61 20.6L92.29 20.6L92.29 26.06L90.08 26.06ZM98.99 26.06L95.98 19.87L98.22 19.3L101.52 26.06L98.99 26.06ZM92.29 18.51L96.15 18.51C96.29 18.51 96.45 18.5 96.62 18.49C96.79 18.47 96.96 18.45 97.12 18.41C97.57 18.31 97.93 18.11 98.2 17.83C98.48 17.54 98.68 17.21 98.8 16.84C98.92 16.47 98.98 16.09 98.98 15.72C98.98 15.35 98.92 14.98 98.8 14.61C98.68 14.24 98.48 13.91 98.2 13.63C97.93 13.34 97.57 13.14 97.12 13.04C96.96 13 96.79 12.97 96.62 12.95C96.45 12.94 96.29 12.93 96.15 12.93L92.29 12.93L92.29 18.51Z" fill="#FFFFFF" fill-opacity="1.000000" fill-rule="nonzero"/>
	<path id="Vector" d="M109.77 26.38C108.25 26.38 106.95 26.05 105.88 25.39C104.81 24.72 103.99 23.79 103.42 22.6C102.85 21.41 102.57 20.03 102.57 18.46C102.57 16.89 102.85 15.51 103.42 14.32C103.99 13.13 104.81 12.2 105.88 11.54C106.95 10.87 108.25 10.53 109.77 10.53C111.29 10.53 112.58 10.87 113.66 11.54C114.74 12.2 115.56 13.13 116.12 14.32C116.69 15.51 116.97 16.89 116.97 18.46C116.97 20.03 116.69 21.41 116.12 22.6C115.56 23.79 114.74 24.72 113.66 25.39C112.58 26.05 111.29 26.38 109.77 26.38ZM109.77 24.28C110.85 24.29 111.75 24.05 112.46 23.57C113.18 23.08 113.72 22.39 114.08 21.52C114.44 20.64 114.62 19.62 114.62 18.46C114.62 17.29 114.44 16.28 114.08 15.41C113.72 14.54 113.18 13.86 112.46 13.38C111.75 12.89 110.85 12.64 109.77 12.64C108.7 12.62 107.8 12.86 107.08 13.34C106.37 13.83 105.83 14.51 105.47 15.39C105.11 16.27 104.93 17.29 104.92 18.46C104.91 19.62 105.09 20.64 105.45 21.51C105.81 22.37 106.35 23.05 107.07 23.54C107.79 24.02 108.7 24.27 109.77 24.28Z" fill="#FFFFFF" fill-opacity="1.000000" fill-rule="nonzero"/>
	<path id="Vector" d="M118.65 26.06L118.65 10.85L128.38 10.85L128.38 12.93L120.86 12.93L120.86 17.2L127.12 17.2L127.12 19.28L120.86 19.28L120.86 23.98L128.38 23.98L128.38 26.06L118.65 26.06Z" fill="#FFFFFF" fill-opacity="1.000000" fill-rule="nonzero"/>
	<path id="Vector" d="M130.5 26.06L130.5 10.85L132.71 10.85L132.71 17.95L139.09 10.85L141.84 10.85L135.1 18.28L142.34 26.06L139.5 26.06L132.71 18.79L132.71 26.06L130.5 26.06Z" fill="#FFFFFF" fill-opacity="1.000000" fill-rule="nonzero"/>
	<path id="Vector" d="M147.2 26.06L147.2 12.93L142.13 12.93L142.13 10.85L154.48 10.85L154.48 12.93L149.41 12.93L149.41 26.06L147.2 26.06Z" fill="#FFFFFF" fill-opacity="1.000000" fill-rule="nonzero"/>
	<path id="Vector" d="M154.02 26.06L154.02 23.73L156.36 23.73L156.36 26.06L154.02 26.06Z" fill="#7B1F37" fill-opacity="1.000000" fill-rule="nonzero"/>
	<path id="Vector" d="M159.27 26.06L159.27 10.85L165.43 10.85C165.57 10.85 165.76 10.86 165.98 10.87C166.2 10.88 166.4 10.9 166.6 10.94C167.45 11.07 168.15 11.36 168.72 11.8C169.29 12.25 169.71 12.81 170 13.48C170.28 14.16 170.42 14.9 170.42 15.72C170.42 16.54 170.28 17.29 170 17.97C169.71 18.65 169.29 19.21 168.72 19.65C168.15 20.09 167.45 20.38 166.6 20.52C166.4 20.54 166.19 20.57 165.97 20.58C165.75 20.59 165.57 20.6 165.43 20.6L161.48 20.6L161.48 26.06L159.27 26.06ZM161.48 18.51L165.34 18.51C165.48 18.51 165.64 18.5 165.81 18.49C165.98 18.47 166.15 18.45 166.3 18.41C166.76 18.31 167.12 18.11 167.39 17.83C167.67 17.54 167.87 17.21 167.99 16.84C168.11 16.47 168.17 16.09 168.17 15.72C168.17 15.35 168.11 14.98 167.99 14.61C167.87 14.24 167.67 13.91 167.39 13.63C167.12 13.34 166.76 13.14 166.3 13.04C166.15 13 165.98 12.97 165.81 12.95C165.64 12.94 165.48 12.93 165.34 12.93L161.48 12.93L161.48 18.51Z" fill="#FFFFFF" fill-opacity="1.000000" fill-rule="nonzero"/>
	<path id="Vector" d="M172.11 26.06L172.11 10.85L178.27 10.85C178.41 10.85 178.6 10.86 178.82 10.87C179.03 10.88 179.24 10.9 179.44 10.94C180.29 11.07 180.99 11.36 181.56 11.8C182.13 12.25 182.55 12.81 182.84 13.48C183.12 14.16 183.26 14.9 183.26 15.72C183.26 16.93 182.95 17.98 182.33 18.86C181.71 19.73 180.78 20.28 179.54 20.49L178.64 20.6L174.32 20.6L174.32 26.06L172.11 26.06ZM181.02 26.06L178.01 19.87L180.24 19.3L183.54 26.06L181.02 26.06ZM174.32 18.51L178.18 18.51C178.32 18.51 178.48 18.5 178.65 18.49C178.82 18.47 178.99 18.45 179.14 18.41C179.6 18.31 179.96 18.11 180.23 17.83C180.51 17.54 180.71 17.21 180.83 16.84C180.95 16.47 181.01 16.09 181.01 15.72C181.01 15.35 180.95 14.98 180.83 14.61C180.71 14.24 180.51 13.91 180.23 13.63C179.96 13.34 179.6 13.14 179.14 13.04C178.99 13 178.82 12.97 178.65 12.95C178.48 12.94 178.32 12.93 178.18 12.93L174.32 12.93L174.32 18.51Z" fill="#FFFFFF" fill-opacity="1.000000" fill-rule="nonzero"/>
	<path id="Vector" d="M191.8 26.38C190.28 26.38 188.98 26.05 187.91 25.39C186.84 24.72 186.02 23.79 185.45 22.6C184.88 21.41 184.6 20.03 184.6 18.46C184.6 16.89 184.88 15.51 185.45 14.32C186.02 13.13 186.84 12.2 187.91 11.54C188.98 10.87 190.28 10.53 191.8 10.53C193.32 10.53 194.61 10.87 195.68 11.54C196.76 12.2 197.59 13.13 198.15 14.32C198.71 15.51 199 16.89 199 18.46C199 20.03 198.71 21.41 198.15 22.6C197.59 23.79 196.76 24.72 195.68 25.39C194.61 26.05 193.32 26.38 191.8 26.38ZM191.8 24.28C192.88 24.29 193.78 24.05 194.49 23.57C195.21 23.08 195.75 22.39 196.11 21.52C196.47 20.64 196.65 19.62 196.65 18.46C196.65 17.29 196.47 16.28 196.11 15.41C195.75 14.54 195.21 13.86 194.49 13.38C193.78 12.89 192.88 12.64 191.8 12.64C190.72 12.62 189.82 12.86 189.11 13.34C188.39 13.83 187.86 14.51 187.5 15.39C187.14 16.27 186.95 17.29 186.95 18.46C186.94 19.62 187.12 20.64 187.48 21.51C187.84 22.37 188.38 23.05 189.1 23.54C189.82 24.02 190.72 24.27 191.8 24.28Z" fill="#FFFFFF" fill-opacity="1.000000" fill-rule="nonzero"/>
</svg>
