<svg width="26.666016" height="26.666748" viewBox="0 0 26.666 26.6667" fill="none" xmlns="http://www.w3.org/2000/svg" xmlns:xlink="http://www.w3.org/1999/xlink">
	<desc>
			Created with Pixso.
	</desc>
	<defs/>
	<path id="Vector" d="M24 18.66L26.66 18.66L26.66 26.66L18.66 26.66L18.66 24L8 24L8 26.66L0 26.66L0 18.66L2.66 18.66L2.66 8L0 8L0 0L8 0L8 2.66L18.66 2.66L18.66 0L26.66 0L26.66 8L24 8L24 18.66ZM21.33 18.66L21.33 8L18.66 8L18.66 5.33L8 5.33L8 8L5.33 8L5.33 18.66L8 18.66L8 21.33L18.66 21.33L18.66 18.66L21.33 18.66ZM2.66 2.66L2.66 5.33L5.33 5.33L5.33 2.66L2.66 2.66ZM2.66 21.33L2.66 24L5.33 24L5.33 21.33L2.66 21.33ZM21.33 2.66L21.33 5.33L24 5.33L24 2.66L21.33 2.66ZM21.33 21.33L21.33 24L24 24L24 21.33L21.33 21.33Z" fill="#FFFFFF" fill-opacity="1.000000" fill-rule="nonzero"/>
</svg>
