<svg width="25.292969" height="25.294922" viewBox="0 0 25.293 25.2949" fill="none" xmlns="http://www.w3.org/2000/svg" xmlns:xlink="http://www.w3.org/1999/xlink">
	<desc>
			Created with Pixso.
	</desc>
	<defs/>
	<path id="Vector" d="M4.16 13.59L6.59 16.02L8.48 14.14L6.04 11.7L7.93 9.81L10.37 12.25L12.25 10.37L9.81 7.93L11.7 6.04L14.14 8.48L16.02 6.6L13.58 4.16L17.36 0.39C17.88 -0.13 18.72 -0.13 19.24 0.39L24.9 6.04C25.42 6.56 25.42 7.41 24.9 7.93L7.93 24.9C7.41 25.42 6.56 25.42 6.04 24.9L0.39 19.24C-0.14 18.72 -0.14 17.88 0.39 17.36L4.16 13.59ZM15.47 21.13L21.13 15.47L24.64 18.98L24.64 24.64L18.99 24.64L15.47 21.13ZM4.16 9.81L0.39 6.04C-0.14 5.52 -0.14 4.68 0.39 4.16L4.16 0.39C4.68 -0.14 5.52 -0.14 6.04 0.39L9.81 4.16L4.16 9.81Z" fill="#FFFFFF" fill-opacity="1.000000" fill-rule="nonzero"/>
</svg>
