<svg width="29.333984" height="24.000000" viewBox="0 0 29.334 24" fill="none" xmlns="http://www.w3.org/2000/svg" xmlns:xlink="http://www.w3.org/1999/xlink">
	<desc>
			Created with Pixso.
	</desc>
	<defs/>
	<path id="Vector" d="M18.66 0L10.66 0C6.69 0 3.39 2.89 2.77 6.69C2.95 6.67 3.14 6.66 3.33 6.66C6.64 6.66 9.33 9.35 9.33 12.66L9.33 14.66L20 14.66L20 12.66C20 9.35 22.68 6.66 26 6.66C26.18 6.66 26.37 6.67 26.56 6.69C25.93 2.89 22.64 0 18.66 0ZM26.66 9.39C26.45 9.35 26.22 9.33 26 9.33C24.15 9.33 22.66 10.82 22.66 12.66L22.66 18.66L20 18.66L20 17.33L9.33 17.33L9.33 18.66L6.66 18.66L6.66 12.66C6.66 10.82 5.17 9.33 3.33 9.33C3.1 9.33 2.88 9.35 2.66 9.39C1.14 9.7 0 11.05 0 12.66C0 13.45 0.24 14.05 0.51 14.74C0.89 15.66 1.33 16.75 1.33 18.66L1.33 22.66C1.33 23.4 1.92 24 2.66 24L14.66 24L26.66 24C27.4 24 28 23.4 28 22.66L28 18.66C28 16.75 28.43 15.66 28.81 14.74C29.09 14.05 29.33 13.45 29.33 12.66C29.33 11.05 28.18 9.7 26.66 9.39Z" fill="#FFFFFF" fill-opacity="1.000000" fill-rule="nonzero"/>
</svg>
