<svg width="47.250000" height="33.750000" viewBox="0 0 47.25 33.75" fill="none" xmlns="http://www.w3.org/2000/svg" xmlns:xlink="http://www.w3.org/1999/xlink">
	<desc>
			Created with Pixso.
	</desc>
	<defs/>
	<path id="Vector" d="M5.06 0C2.28 0 0 2.28 0 5.06L0 28.68C0 31.46 2.28 33.75 5.06 33.75L42.18 33.75C44.96 33.75 47.25 31.46 47.25 28.68L47.25 5.06C47.25 2.28 44.96 0 42.18 0L5.06 0ZM5.06 3.37L42.18 3.37C43.14 3.37 43.87 4.1 43.87 5.06L43.87 28.68C43.87 29.64 43.14 30.37 42.18 30.37L5.06 30.37C4.1 30.37 3.37 29.64 3.37 28.68L3.37 5.06C3.37 4.1 4.1 3.37 5.06 3.37ZM15.18 6.75C11.47 6.75 8.43 9.78 8.43 13.5C8.43 15.37 9.24 17.07 10.49 18.29C8.24 19.82 6.75 22.41 6.75 25.31L10.12 25.31C10.12 22.49 12.37 20.25 15.18 20.25C18 20.25 20.25 22.49 20.25 25.31L23.62 25.31C23.62 22.41 22.12 19.82 19.88 18.29C21.13 17.07 21.93 15.37 21.93 13.5C21.93 9.78 18.89 6.75 15.18 6.75ZM27 8.43L27 11.81L40.5 11.81L40.5 8.43L27 8.43ZM15.18 10.12C17.07 10.12 18.56 11.61 18.56 13.5C18.56 15.38 17.07 16.87 15.18 16.87C13.3 16.87 11.81 15.38 11.81 13.5C11.81 11.61 13.3 10.12 15.18 10.12ZM27 15.18L27 18.56L40.5 18.56L40.5 15.18L27 15.18ZM27 21.93L27 25.31L35.43 25.31L35.43 21.93L27 21.93Z" fill="#FFFFFF" fill-opacity="1.000000" fill-rule="nonzero"/>
</svg>
