<svg width="37.125000" height="46.142578" viewBox="0 0 37.125 46.1426" fill="none" xmlns="http://www.w3.org/2000/svg" xmlns:xlink="http://www.w3.org/1999/xlink">
	<desc>
			Created with Pixso.
	</desc>
	<defs/>
	<path id="Vector" d="M22.93 0L21.35 0.58L12.02 4L10.44 4.58L11.02 6.16L13.86 13.86L14.44 15.45L16.03 14.87L25.36 11.44L26.94 10.86L26.36 9.28L23.51 1.58L22.93 0ZM6.06 2.26L4.48 2.84L0 4.48L1.1 7.64L4.06 6.59L15.29 36.59L15.87 38.17L17.45 37.59L35.38 30.84L34.22 27.68L17.87 33.85L6.64 3.84L6.06 2.26ZM20.93 4.32L22.62 8.85L16.45 11.12L14.76 6.59L20.93 4.32ZM28.31 13.92L26.73 14.5L17.4 17.92L15.82 18.5L16.4 20.09L19.24 27.79L19.82 29.37L21.41 28.79L30.74 25.36L32.32 24.78L31.74 23.15L28.89 15.5L28.31 13.92ZM26.31 18.24L28 22.78L21.83 25.04L20.14 20.51L26.31 18.24ZM10.12 32.64C7.34 32.64 5.06 34.92 5.06 37.7C5.06 40.48 7.34 42.76 10.12 42.76C12.9 42.76 15.18 40.48 15.18 37.7C15.18 34.92 12.9 32.64 10.12 32.64ZM10.12 42.76L0 42.76L0 46.14L37.12 46.14L37.12 42.76L10.12 42.76ZM10.12 36.01C11.07 36.01 11.81 36.75 11.81 37.7C11.81 38.65 11.07 39.39 10.12 39.39C9.17 39.39 8.43 38.65 8.43 37.7C8.43 36.75 9.17 36.01 10.12 36.01Z" fill="#FFFFFF" fill-opacity="1.000000" fill-rule="nonzero"/>
</svg>
