<svg width="38.812500" height="38.812500" viewBox="0 0 38.8125 38.8125" fill="none" xmlns="http://www.w3.org/2000/svg" xmlns:xlink="http://www.w3.org/1999/xlink">
	<desc>
			Created with Pixso.
	</desc>
	<defs/>
	<path id="Vector" d="M0 0L0 6.75L1.68 6.75L1.68 23.62L0 23.62L0 30.37L6.75 30.37L6.75 28.68L10.12 28.68L10.12 32.06L8.43 32.06L8.43 38.81L15.18 38.81L15.18 37.12L32.06 37.12L32.06 38.81L38.81 38.81L38.81 32.06L37.12 32.06L37.12 15.18L38.81 15.18L38.81 8.43L32.06 8.43L32.06 10.12L28.68 10.12L28.68 6.75L30.37 6.75L30.37 0L23.62 0L23.62 1.68L6.75 1.68L6.75 0L0 0ZM6.75 5.06L23.62 5.06L23.62 6.75L25.31 6.75L25.31 23.62L23.62 23.62L23.62 25.31L6.75 25.31L6.75 23.62L5.06 23.62L5.06 6.75L6.75 6.75L6.75 5.06ZM28.68 13.5L32.06 13.5L32.06 15.18L33.75 15.18L33.75 32.06L32.06 32.06L32.06 33.75L15.18 33.75L15.18 32.06L13.5 32.06L13.5 28.68L23.62 28.68L23.62 30.37L30.37 30.37L30.37 23.62L28.68 23.62L28.68 13.5Z" fill="#FFFFFF" fill-opacity="1.000000" fill-rule="nonzero"/>
</svg>
