<svg width="43.875000" height="38.944336" viewBox="0 0 43.875 38.9443" fill="none" xmlns="http://www.w3.org/2000/svg" xmlns:xlink="http://www.w3.org/1999/xlink">
	<desc>
			Created with Pixso.
	</desc>
	<defs/>
	<path id="Vector" d="M0 0L0 30.37L8.43 30.37L8.43 38.94L19.15 30.37L43.87 30.37L43.87 0L0 0ZM3.37 3.37L40.5 3.37L40.5 27L17.96 27L11.81 31.92L11.81 27L3.37 27L3.37 3.37ZM11.81 11.81C9.94 11.81 8.43 13.32 8.43 15.18C8.43 17.05 9.94 18.56 11.81 18.56C13.67 18.56 15.18 17.05 15.18 15.18C15.18 13.32 13.67 11.81 11.81 11.81ZM21.93 11.81C20.07 11.81 18.56 13.32 18.56 15.18C18.56 17.05 20.07 18.56 21.93 18.56C23.8 18.56 25.31 17.05 25.31 15.18C25.31 13.32 23.8 11.81 21.93 11.81ZM32.06 11.81C30.19 11.81 28.68 13.32 28.68 15.18C28.68 17.05 30.19 18.56 32.06 18.56C33.92 18.56 35.43 17.05 35.43 15.18C35.43 13.32 33.92 11.81 32.06 11.81Z" fill="#FFFFFF" fill-opacity="1.000000" fill-rule="nonzero"/>
</svg>
