<svg width="37.125000" height="45.562500" viewBox="0 0 37.125 45.5625" fill="none" xmlns="http://www.w3.org/2000/svg" xmlns:xlink="http://www.w3.org/1999/xlink">
	<desc>
			Created with Pixso.
	</desc>
	<defs/>
	<path id="Vector" d="M18.56 0C16.43 0 14.93 1.5 14.19 3.37L0 3.37L0 45.56L37.12 45.56L37.12 3.37L22.93 3.37C22.19 1.5 20.68 0 18.56 0ZM18.56 3.37C19.49 3.37 20.25 4.13 20.25 5.06L20.25 6.75L25.31 6.75L25.31 10.12L11.81 10.12L11.81 6.75L16.87 6.75L16.87 5.06C16.87 4.13 17.63 3.37 18.56 3.37ZM3.37 6.75L8.43 6.75L8.43 13.5L28.68 13.5L28.68 6.75L33.75 6.75L33.75 42.18L3.37 42.18L3.37 6.75ZM6.75 18.56L6.75 21.93L10.12 21.93L10.12 18.56L6.75 18.56ZM13.5 18.56L13.5 21.93L30.37 21.93L30.37 18.56L13.5 18.56ZM6.75 25.31L6.75 28.68L10.12 28.68L10.12 25.31L6.75 25.31ZM13.5 25.31L13.5 28.68L30.37 28.68L30.37 25.31L13.5 25.31ZM6.75 32.06L6.75 35.43L10.12 35.43L10.12 32.06L6.75 32.06ZM13.5 32.06L13.5 35.43L30.37 35.43L30.37 32.06L13.5 32.06Z" fill="#FFFFFF" fill-opacity="1.000000" fill-rule="nonzero"/>
</svg>
