<svg width="47.250000" height="33.750000" viewBox="0 0 47.25 33.75" fill="none" xmlns="http://www.w3.org/2000/svg" xmlns:xlink="http://www.w3.org/1999/xlink">
	<desc>
			Created with Pixso.
	</desc>
	<defs/>
	<path id="Vector" d="M5.06 0C2.28 0 0 2.28 0 5.06L0 28.68C0 31.46 2.28 33.75 5.06 33.75L42.18 33.75C44.96 33.75 47.25 31.46 47.25 28.68L47.25 5.06C47.25 2.28 44.96 0 42.18 0L5.06 0ZM5.06 3.37L42.18 3.37C43.14 3.37 43.87 4.1 43.87 5.06L43.87 8.43L5.06 8.43L5.06 11.81L43.87 11.81L43.87 28.68C43.87 29.64 43.14 30.37 42.18 30.37L5.06 30.37C4.1 30.37 3.37 29.64 3.37 28.68L3.37 5.06C3.37 4.1 4.1 3.37 5.06 3.37Z" fill="#FFFFFF" fill-opacity="1.000000" fill-rule="nonzero"/>
</svg>
