<svg width="17.250000" height="20.822754" viewBox="0 0 17.25 20.8228" fill="none" xmlns="http://www.w3.org/2000/svg" xmlns:xlink="http://www.w3.org/1999/xlink">
	<desc>
			Created with Pixso.
	</desc>
	<defs/>
	<path id="Vector" d="M14.72 14.72L8.62 20.82L2.52 14.72C-0.85 11.35 -0.85 5.89 2.52 2.52C5.89 -0.85 11.35 -0.85 14.72 2.52C18.09 5.89 18.09 11.35 14.72 14.72ZM8.62 12.45C10.74 12.45 12.45 10.74 12.45 8.62C12.45 6.5 10.74 4.79 8.62 4.79C6.5 4.79 4.79 6.5 4.79 8.62C4.79 10.74 6.5 12.45 8.62 12.45ZM8.62 10.54C7.56 10.54 6.7 9.68 6.7 8.62C6.7 7.56 7.56 6.7 8.62 6.7C9.68 6.7 10.54 7.56 10.54 8.62C10.54 9.68 9.68 10.54 8.62 10.54Z" fill="#EFEDFD" fill-opacity="1.000000" fill-rule="nonzero"/>
</svg>
