<svg width="19.548096" height="16.199997" viewBox="0 0 19.5481 16.2" fill="none" xmlns="http://www.w3.org/2000/svg" xmlns:xlink="http://www.w3.org/1999/xlink">
	<desc>
			Created with Pixso.
	</desc>
	<defs/>
	<path id="Vector" d="M1.34 6.97C6.59 4.68 10.09 3.18 11.84 2.45C16.83 0.37 17.87 0.01 18.55 0C18.7 -0.01 19.03 0.03 19.25 0.2C19.43 0.35 19.48 0.55 19.5 0.69C19.53 0.83 19.56 1.15 19.53 1.4C19.26 4.25 18.09 11.15 17.5 14.34C17.24 15.69 16.75 16.14 16.26 16.19C15.22 16.28 14.43 15.5 13.41 14.83C11.83 13.79 10.93 13.15 9.4 12.13C7.62 10.96 8.77 10.32 9.78 9.27C10.05 8.99 14.65 4.8 14.74 4.42C14.76 4.38 14.77 4.2 14.66 4.1C14.55 4.01 14.4 4.04 14.29 4.07C14.13 4.1 11.6 5.78 6.69 9.09C5.98 9.58 5.33 9.82 4.74 9.81C4.1 9.79 2.86 9.44 1.94 9.15C0.82 8.78 -0.08 8.59 0 7.96C0.04 7.64 0.49 7.31 1.34 6.97Z" fill="#FFFFFF" fill-opacity="1.000000" fill-rule="nonzero"/>
</svg>
