<svg width="20.000000" height="20.000000" viewBox="0 0 20 20" fill="none" xmlns="http://www.w3.org/2000/svg" xmlns:xlink="http://www.w3.org/1999/xlink">
	<desc>
			Created with Pixso.
	</desc>
	<defs/>
	<path id="Vector" d="M10 0C15.52 0 20 4.47 20 10C20 15.52 15.52 20 10 20C8.16 20 6.44 19.5 4.96 18.64L0 20L1.35 15.03C0.49 13.55 0 11.83 0 10C0 4.47 4.47 0 10 0ZM6.39 5.3C6.26 5.31 6.13 5.34 6.01 5.4C5.93 5.45 5.85 5.51 5.72 5.63C5.6 5.74 5.53 5.84 5.46 5.94C5.09 6.42 4.89 7.01 4.89 7.62C4.9 8.11 5.02 8.58 5.23 9.03C5.63 9.93 6.31 10.89 7.2 11.77C7.41 11.98 7.62 12.2 7.84 12.4C8.95 13.37 10.26 14.07 11.68 14.44C11.68 14.44 12.24 14.53 12.25 14.53C12.44 14.54 12.62 14.53 12.81 14.52C13.1 14.5 13.39 14.42 13.64 14.29C13.81 14.2 13.89 14.15 14.03 14.07C14.03 14.07 14.07 14.04 14.15 13.98C14.29 13.88 14.37 13.81 14.48 13.69C14.56 13.6 14.63 13.5 14.69 13.39C14.77 13.22 14.85 12.91 14.88 12.65C14.9 12.46 14.89 12.35 14.89 12.28C14.89 12.17 14.8 12.06 14.7 12.02L14.12 11.75C14.12 11.75 13.25 11.38 12.72 11.13C12.66 11.11 12.6 11.1 12.54 11.09C12.41 11.08 12.26 11.12 12.16 11.22C12.16 11.22 12.09 11.27 11.37 12.15C11.33 12.2 11.24 12.3 11.07 12.29C11.05 12.29 11.03 12.29 11 12.28C10.94 12.26 10.87 12.24 10.81 12.21C10.69 12.16 10.64 12.14 10.56 12.11C9.98 11.85 9.45 11.52 8.98 11.1C8.86 10.99 8.74 10.87 8.62 10.76C8.2 10.35 7.86 9.92 7.6 9.49C7.59 9.47 7.56 9.43 7.54 9.39C7.5 9.33 7.45 9.25 7.44 9.19C7.4 9.04 7.5 8.92 7.5 8.92C7.5 8.92 7.74 8.66 7.86 8.51C7.97 8.37 8.06 8.24 8.12 8.14C8.24 7.95 8.27 7.76 8.21 7.6C7.93 6.92 7.64 6.24 7.34 5.56C7.29 5.43 7.11 5.33 6.95 5.32C6.9 5.31 6.84 5.3 6.79 5.3C6.65 5.29 6.52 5.29 6.39 5.3Z" fill="#FFFFFF" fill-opacity="1.000000" fill-rule="nonzero"/>
</svg>
